<svg width="23" height="22" viewBox="0 0 23 22" fill="none" xmlns="http://www.w3.org/2000/svg">
<g clip-path="url(#clip0_88_3)">
<path d="M5.44558 0.1638C5.31108 0.394758 5.17489 0.622441 5.03535 0.841933C4.8958 1.06143 4.77307 1.3104 4.64529 1.52826C4.38637 1.97871 4.1409 2.42752 3.91729 2.8878C3.47227 3.78414 3.08757 4.70774 2.76561 5.65274C2.45481 6.55904 2.2297 7.49112 2.0931 8.43735C2.02867 8.88932 1.98771 9.34417 1.97036 9.80017C1.96271 10.2376 1.98123 10.6752 2.02584 11.1106C2.12504 11.9394 2.3621 12.7142 2.71517 13.1974C3.06824 13.6806 3.40954 13.828 3.70041 13.828C3.95688 13.8195 4.21092 13.7765 4.4553 13.7002C4.83735 13.5843 5.20857 13.4369 5.56495 13.2596C6.42858 12.837 7.26515 12.3639 8.07007 11.8428C8.9393 11.3219 9.82029 10.7518 10.7416 10.1916C11.663 9.63145 12.623 9.07289 13.6738 8.57166C14.7246 8.07044 15.8595 7.58886 17.2398 7.36773C17.9895 7.23957 18.7564 7.23957 19.5062 7.36773C19.7101 7.40697 19.9116 7.45728 20.1098 7.51843C20.2114 7.54689 20.3113 7.58079 20.409 7.61998C20.5082 7.65766 20.599 7.69042 20.7167 7.74611C20.8344 7.8018 20.9319 7.84111 21.053 7.90991C21.174 7.97871 21.2934 8.06225 21.4077 8.14415C21.6115 8.29573 21.7986 8.46755 21.9659 8.65684C22.127 8.83669 22.2706 9.03082 22.3946 9.23669C22.5049 9.42589 22.5988 9.62368 22.6754 9.82801C22.748 10.0162 22.8081 10.2088 22.8553 10.4046C22.8889 10.5848 22.9343 10.7748 22.9495 10.9451C23.0235 11.5808 23.015 12.2231 22.9242 12.8567C22.7595 13.9592 22.4899 15.0444 22.1189 16.0983C21.7692 17.1171 21.3825 18.1032 20.9521 19.0713L20.3031 20.5192C20.0677 20.9959 19.8508 21.4758 19.6003 21.9476L19.3565 21.8886C19.8492 19.8722 20.3838 17.8657 20.784 15.8378C20.9998 14.8332 21.1381 13.8143 21.1976 12.7895C21.2224 12.2864 21.1903 11.7821 21.1017 11.2858C21.0832 11.163 21.0446 11.0467 21.016 10.9271C20.9788 10.8115 20.9356 10.6977 20.8865 10.5864C20.7945 10.3665 20.6617 10.1649 20.4948 9.99181C20.4133 9.90728 20.3238 9.83049 20.2275 9.76249L20.0812 9.6724C20.0266 9.64581 19.9704 9.62229 19.9131 9.60197C19.6824 9.51323 19.4421 9.45057 19.1968 9.41523C18.6916 9.35657 18.1798 9.38261 17.6837 9.49222C16.6749 9.70189 15.7166 10.136 14.7919 10.6175C12.9458 11.6003 11.2158 12.8092 9.4151 13.923C8.51118 14.4896 7.57049 14.9984 6.59894 15.4464C6.10366 15.672 5.58886 15.8545 5.06057 15.9918C4.51818 16.1381 3.95229 16.1831 3.39273 16.1245C2.82391 16.0486 2.2854 15.829 1.83082 15.4873C1.38519 15.1494 1.01792 14.7235 0.753111 14.2375C0.491593 13.7623 0.300817 13.2532 0.186517 12.7256C0.0738623 12.2034 0.0113849 11.672 -0.000105487 11.1384C-0.00749476 10.6106 0.0239699 10.0829 0.0940466 9.55938C0.166003 9.03771 0.270435 8.52079 0.406766 8.01147C0.679661 6.99905 1.05707 6.01615 1.53323 5.07781C2.50209 3.20918 3.75978 1.49662 5.26232 0L5.44558 0.1638Z" fill="#27333F"/>
<path d="M4.03506 21.9656C4.10471 21.4605 4.21718 20.962 4.37132 20.475C4.50582 20.0147 4.64873 19.5741 4.74456 19.1646C4.79227 18.976 4.82265 18.7836 4.83535 18.5897C4.84129 18.5073 4.84129 18.4247 4.83535 18.3423C4.82769 18.2679 4.81249 18.1944 4.78996 18.1228C4.72537 17.9529 4.61433 17.8033 4.46883 17.6904C4.27757 17.5296 4.07223 17.3855 3.85516 17.2596L3.86693 17.199C4.12415 17.2186 4.3772 17.2737 4.61847 17.3628C4.86498 17.459 5.07837 17.6215 5.23382 17.8313C5.38005 18.0474 5.46316 18.2983 5.47424 18.5569C5.4863 18.81 5.46254 19.0636 5.40363 19.3104C5.27627 19.7948 5.09414 20.264 4.86057 20.7092C4.63463 21.1542 4.38084 21.5853 4.10063 22L4.03506 21.9656Z" fill="#27333F"/>
</g>
<defs>
<clipPath id="clip0_88_3">
<rect width="23" height="22" fill="white"/>
</clipPath>
</defs>
</svg>
